# xmcd
#
# Track frame offsets:
# 150
# 10935
# 21897
# 35440
# 48240
# 59085
# 71457
# 85752
# 102202
# 118032
# 130300
# 145132
# 164540
# 181207
# 195202
# 209992
#
# Disc length: 2984 seconds
#
#
# Revision: 2
# Processed by: cddbd v1.5.1PL2 Copyright (c) Steve Scherf et al.
# Submitted via: FreeRIP 2.945 
#
DISCID=e20ba610
DTITLE=Ronnie Milsap - RCA Country Legends
DYEAR=2000
DGENRE=Country
TTITLE0=Pure Love
TTITLE1=(All Together Now) Let's Fall Apart
TTITLE2=That Girl Who Waits On Tables
TTITLE3=I Hate You
TTITLE4=Daydreams About Night Things
TTITLE5=Please Don't Tell Me How The Story Ends
TTITLE6=Too Late To Worry, Too Blue To Cry
TTITLE7=It's Almost Like A Song
TTITLE8=Only One Love In My Life
TTITLE9=My Heart
TTITLE10=(There's) No Gettin' Over Me
TTITLE11=Lost In The Fifties Tonight (In The Still Of The Night)
TTITLE12=Happy, Happy Birthday Baby
TTITLE13=Don't You Ever Get Tired (Of Hurting Me)
TTITLE14=A Woman In Love
TTITLE15=Snap Your Fingers
EXTD=Buddha Records
EXTT0=
EXTT1=
EXTT2=
EXTT3=
EXTT4=
EXTT5=
EXTT6=
EXTT7=
EXTT8=
EXTT9=
EXTT10=
EXTT11=
EXTT12=
EXTT13=
EXTT14=
EXTT15=
PLAYORDER=
